<?xml version="1.0" encoding="UTF-8"?>
<svg xmlns="http://www.w3.org/2000/svg" xmlns:xlink="http://www.w3.org/1999/xlink" width="24px" height="24px" viewBox="0 0 24 24" version="1.1">
<defs>
<linearGradient id="linear0" gradientUnits="userSpaceOnUse" x1="0.24419" y1="0.75581" x2="0.75194" y2="0.25194" gradientTransform="matrix(24,0,0,24,0,0)">
<stop offset="0" style="stop-color:rgb(26.666667%,43.137255%,100%);stop-opacity:1;"/>
<stop offset="0.36661" style="stop-color:rgb(18.039216%,58.823529%,100%);stop-opacity:1;"/>
<stop offset="0.83221" style="stop-color:rgb(69.411765%,77.254902%,100%);stop-opacity:1;"/>
</linearGradient>
</defs>
<g id="surface1">
<path style=" stroke:none;fill-rule:evenodd;fill:url(#linear0);" d="M 12.339844 5.953125 C 12.230469 5.585938 12.148438 5.207031 12.09375 4.828125 L 12.09375 3.71875 C 14.160156 3.742188 16.144531 4.535156 17.65625 5.953125 Z M 11.648438 5.953125 C 11.761719 5.578125 11.847656 5.199219 11.90625 4.808594 L 11.90625 3.71875 C 9.839844 3.742188 7.855469 4.535156 6.34375 5.953125 Z M 6.21875 6.140625 L 11.589844 6.140625 C 11.511719 6.375 11.421875 6.609375 11.324219 6.835938 C 10.910156 7.824219 10.3125 8.722656 9.5625 9.484375 L 6.214844 6.140625 Z M 5.953125 5.953125 L 2.976562 5.953125 L 2.976562 6.140625 L 5.890625 6.140625 C 4.398438 7.691406 3.554688 9.753906 3.535156 11.90625 L 0 11.90625 L 0 12.09375 L 3.535156 12.09375 C 3.554688 14.246094 4.398438 16.308594 5.890625 17.859375 L 2.976562 17.859375 L 2.976562 18.046875 L 5.953125 18.046875 L 5.953125 21.023438 L 6.140625 21.023438 L 6.140625 18.109375 C 7.691406 19.601562 9.753906 20.445312 11.90625 20.464844 L 11.90625 24 L 12.09375 24 L 12.09375 20.464844 C 14.246094 20.445312 16.308594 19.601562 17.859375 18.109375 L 17.859375 21.023438 L 18.046875 21.023438 L 18.046875 18.046875 L 21.023438 18.046875 L 21.023438 17.859375 L 18.109375 17.859375 C 19.601562 16.308594 20.445312 14.246094 20.464844 12.09375 L 24 12.09375 L 24 11.90625 L 20.464844 11.90625 C 20.445312 9.753906 19.601562 7.691406 18.109375 6.140625 L 21.023438 6.140625 L 21.023438 5.953125 L 18.046875 5.953125 L 18.046875 2.976562 L 17.859375 2.976562 L 17.859375 5.890625 C 16.308594 4.398438 14.246094 3.554688 12.09375 3.535156 L 12.09375 0 L 11.90625 0 L 11.90625 3.535156 C 9.753906 3.554688 7.691406 4.398438 6.140625 5.890625 L 6.140625 2.976562 L 5.953125 2.976562 Z M 12.09375 20.277344 C 14.160156 20.257812 16.148438 19.460938 17.65625 18.046875 L 12.339844 18.046875 C 12.230469 18.414062 12.148438 18.789062 12.09375 19.171875 Z M 11.90625 19.191406 C 11.847656 18.804688 11.761719 18.421875 11.648438 18.046875 L 6.34375 18.046875 C 7.851562 19.460938 9.839844 20.257812 11.90625 20.277344 Z M 3.722656 11.90625 L 4.828125 11.90625 C 5.207031 11.851562 5.585938 11.769531 5.953125 11.660156 L 5.953125 6.34375 C 4.539062 7.855469 3.742188 9.839844 3.722656 11.90625 Z M 4.808594 12.09375 L 3.71875 12.09375 C 3.742188 14.160156 4.535156 16.144531 5.953125 17.65625 L 5.953125 12.351562 C 5.578125 12.238281 5.195312 12.152344 4.808594 12.09375 Z M 20.277344 11.90625 C 20.257812 9.839844 19.460938 7.855469 18.046875 6.34375 L 18.046875 11.660156 C 18.414062 11.769531 18.789062 11.851562 19.171875 11.90625 Z M 19.191406 12.09375 C 18.800781 12.152344 18.421875 12.238281 18.046875 12.351562 L 18.046875 17.65625 C 19.460938 16.148438 20.257812 14.160156 20.277344 12.09375 Z M 17.859375 17.78125 L 17.859375 12.410156 C 17.625 12.488281 17.390625 12.578125 17.164062 12.675781 C 16.175781 13.089844 15.277344 13.6875 14.515625 14.4375 Z M 17.859375 11.601562 L 17.859375 6.152344 L 17.847656 6.140625 L 12.398438 6.140625 C 12.472656 6.375 12.558594 6.609375 12.65625 6.835938 C 13.089844 7.839844 13.707031 8.75 14.476562 9.523438 C 15.25 10.292969 16.160156 10.910156 17.164062 11.34375 C 17.390625 11.441406 17.625 11.527344 17.859375 11.601562 Z M 6.140625 17.847656 L 6.140625 12.410156 C 6.375 12.488281 6.609375 12.578125 6.835938 12.675781 C 7.839844 13.097656 8.753906 13.707031 9.523438 14.476562 C 10.292969 15.246094 10.902344 16.160156 11.324219 17.164062 C 11.421875 17.390625 11.511719 17.625 11.589844 17.859375 L 6.152344 17.859375 Z M 6.140625 11.601562 L 6.140625 6.324219 L 9.429688 9.617188 C 8.675781 10.34375 7.796875 10.929688 6.835938 11.34375 C 6.609375 11.441406 6.375 11.527344 6.140625 11.601562 Z M 12.398438 17.859375 L 17.675781 17.859375 L 14.382812 14.570312 C 13.65625 15.324219 13.070312 16.203125 12.65625 17.164062 C 12.558594 17.390625 12.472656 17.625 12.398438 17.859375 Z M 10.050781 10.050781 C 9.21875 10.875 8.242188 11.542969 7.171875 12.011719 C 8.246094 12.464844 9.222656 13.125 10.050781 13.949219 C 10.875 14.777344 11.535156 15.753906 11.988281 16.828125 C 12.457031 15.757812 13.125 14.78125 13.949219 13.949219 C 14.777344 13.125 15.753906 12.464844 16.828125 12.011719 C 15.757812 11.542969 14.78125 10.875 13.949219 10.050781 C 13.125 9.21875 12.457031 8.242188 11.988281 7.171875 C 11.535156 8.246094 10.875 9.222656 10.050781 10.050781 Z M 10.050781 10.050781 "/>
</g>
</svg>
