<?xml version="1.0" encoding="UTF-8"?>
<svg xmlns="http://www.w3.org/2000/svg" xmlns:xlink="http://www.w3.org/1999/xlink" width="24px" height="24px" viewBox="0 0 24 24" version="1.1">
<g id="surface1">
<path style=" stroke:none;fill-rule:nonzero;fill:rgb(0%,0%,0%);fill-opacity:1;" d="M 3.75 14.625 C 3.75 11.175781 5.476562 7.574219 7.5 7.574219 C 8.625 7.574219 9.523438 8.25 10.949219 10.273438 C 9.601562 12.375 8.773438 13.648438 8.773438 13.648438 C 6.976562 16.5 6.375 17.101562 5.398438 17.101562 C 4.425781 17.175781 3.75 16.273438 3.75 14.625 M 15.523438 13.351562 L 14.25 11.25 C 13.949219 10.726562 13.574219 10.199219 13.273438 9.75 C 14.398438 8.023438 15.300781 7.125 16.425781 7.125 C 18.675781 7.125 20.476562 10.5 20.476562 14.699219 C 20.476562 16.273438 19.949219 17.175781 18.898438 17.175781 C 17.851562 17.175781 17.476562 16.5 15.523438 13.351562 M 12.300781 8.25 C 10.648438 6.074219 9.226562 5.25 7.574219 5.25 C 4.125 5.25 1.5 9.824219 1.5 14.625 C 1.5 17.625 2.925781 19.5 5.324219 19.5 C 7.050781 19.5 8.25 18.675781 10.5 14.773438 C 10.5 14.773438 11.398438 13.125 12.074219 12 C 12.300781 12.375 12.523438 12.75 12.75 13.199219 L 13.800781 15 C 15.824219 18.449219 16.949219 19.574219 18.976562 19.574219 C 21.300781 19.574219 22.574219 17.625 22.574219 14.550781 C 22.5 9.449219 19.800781 5.25 16.574219 5.25 C 14.851562 5.25 13.5 6.601562 12.300781 8.25 "/>
</g>
</svg>
