<?xml version="1.0" encoding="UTF-8"?>
<svg xmlns="http://www.w3.org/2000/svg" xmlns:xlink="http://www.w3.org/1999/xlink" width="24px" height="24px" viewBox="0 0 24 24" version="1.1">
<defs>
<linearGradient id="linear0" gradientUnits="userSpaceOnUse" x1="0" y1="0" x2="1" y2="0" gradientTransform="matrix(21.78125,0,0,22,1.113281,1)">
<stop offset="0" style="stop-color:rgb(0%,1.960784%,37.254902%);stop-opacity:0.839216;"/>
<stop offset="1" style="stop-color:rgb(43.529412%,41.176471%,96.862745%);stop-opacity:0.839216;"/>
</linearGradient>
</defs>
<g id="surface1">
<path style=" stroke:none;fill-rule:nonzero;fill:url(#linear0);" d="M 12.605469 1.339844 C 12.996094 2.03125 13.386719 2.722656 13.777344 3.414062 L 19.488281 3.507812 C 19.660156 3.507812 19.808594 3.617188 19.933594 3.832031 L 21.386719 6.402344 C 21.578125 6.738281 21.628906 6.882812 21.410156 7.238281 C 21.152344 7.671875 20.898438 8.105469 20.652344 8.539062 L 20.285156 9.199219 C 20.179688 9.394531 20.0625 9.476562 20.242188 9.710938 L 22.894531 14.347656 C 23.066406 14.648438 23.007812 14.839844 22.851562 15.117188 C 22.414062 15.902344 21.972656 16.679688 21.519531 17.457031 C 21.359375 17.730469 21.164062 17.832031 20.839844 17.828125 C 20.0625 17.8125 19.285156 17.816406 18.511719 17.84375 C 17.535156 19.476562 16.632812 21.058594 15.726562 22.632812 C 15.554688 22.925781 15.34375 22.996094 15 22.996094 C 14.003906 23 12.996094 23 11.984375 23 C 11.789062 23 11.613281 22.894531 11.519531 22.726562 L 10.183594 20.40625 L 4.980469 20.355469 C 4.695312 20.386719 4.429688 20.355469 4.175781 20.265625 L 2.574219 17.492188 C 2.476562 17.328125 2.476562 17.121094 2.570312 16.953125 L 3.777344 14.835938 C 3.148438 13.546875 2.523438 12.457031 1.902344 11.363281 L 1.113281 9.96875 C 0.953125 9.660156 0.941406 9.472656 1.210938 9.003906 C 1.675781 8.191406 2.136719 7.378906 2.597656 6.570312 C 2.726562 6.335938 2.898438 6.234375 3.179688 6.234375 C 4.042969 6.230469 4.90625 6.230469 5.769531 6.234375 L 8.683594 1.273438 C 8.769531 1.125 8.929688 1.03125 9.105469 1.027344 C 9.628906 1.027344 10.15625 1.027344 10.6875 1.023438 L 11.703125 1 C 12.046875 0.996094 12.429688 1.03125 12.605469 1.339844 Z M 9.171875 1.742188 L 6.253906 6.789062 L 3.253906 6.867188 C 3.195312 6.867188 3.183594 6.890625 3.210938 6.941406 L 9.023438 17.097656 C 9.046875 17.136719 9.035156 17.15625 8.988281 17.160156 L 6.191406 17.175781 L 4.671875 19.601562 C 4.628906 19.679688 4.652344 19.71875 4.742188 19.71875 L 10.457031 19.726562 C 10.503906 19.726562 10.535156 19.746094 10.5625 19.785156 L 11.964844 22.242188 C 12.011719 22.320312 12.054688 22.324219 12.101562 22.242188 L 17.109375 13.480469 L 17.890625 12.097656 L 19.410156 14.628906 L 22.28125 14.671875 L 19.417969 9.523438 L 19.710938 8.90625 L 20.828125 6.929688 C 20.855469 6.886719 20.84375 6.867188 20.796875 6.867188 L 9.199219 6.867188 C 9.140625 6.867188 9.128906 6.839844 9.15625 6.789062 L 10.589844 4.285156 L 9.226562 1.773438 Z M 15.460938 9.761719 C 15.507812 9.761719 15.519531 9.78125 15.496094 9.824219 L 14.664062 11.289062 L 12.050781 15.871094 L 8.496094 9.839844 C 8.476562 9.808594 8.488281 9.789062 8.527344 9.785156 L 8.742188 9.773438 L 15.464844 9.761719 Z M 15.460938 9.761719 "/>
</g>
</svg>
